<svg width="20" height="16" viewBox="0 0 20 16" fill="none" xmlns="http://www.w3.org/2000/svg">
<path d="M12.399 9.24395C12.399 10.6806 11.236 11.8437 9.79931 11.8437C8.36262 11.8437 7.19958 10.6806 7.19958 9.24395C7.19958 7.80725 8.36262 6.64421 9.79931 6.64421C11.236 6.64421 12.399 7.80725 12.399 9.24395ZM17.7192 2.72851C18.7575 2.72851 19.5986 3.56961 19.5986 4.60789V9.5337V13.711C19.5986 14.8177 18.7012 15.7151 17.5945 15.7151H2.00413C0.897432 15.7151 0 14.8177 0 13.711V9.52968V4.60789C0 3.56961 0.841091 2.72851 1.87938 2.72851H5.63813L5.8152 1.97998C6.08483 0.820969 7.11909 0 8.3103 0H11.2923C12.4836 0 13.5178 0.820969 13.7875 1.97998L13.9605 2.72851H17.7192V2.72851ZM3.91972 5.44093C3.91972 4.92179 3.49717 4.49923 2.97802 4.49923C2.45486 4.49923 2.0323 4.92179 2.0323 5.44093C2.0323 5.96007 2.45486 6.38263 2.974 6.38263C3.49717 6.38666 3.91972 5.9641 3.91972 5.44093ZM14.4354 9.24395C14.4354 6.68446 12.3588 4.60789 9.79931 4.60789C7.23982 4.60789 5.16325 6.68446 5.16325 9.24395C5.16325 11.8034 7.23982 13.88 9.79931 13.88C12.3588 13.88 14.4354 11.8034 14.4354 9.24395Z" fill="#6A6A6A"/>
</svg>
