<svg width="16" height="16" viewBox="0 0 16 16" fill="none" xmlns="http://www.w3.org/2000/svg">
<path d="M7.7904 0C3.48776 0 0 3.48776 0 7.7904C0 12.093 3.48776 15.5808 7.7904 15.5808C12.093 15.5808 15.5808 12.093 15.5808 7.7904C15.5808 3.48776 12.093 0 7.7904 0ZM7.7904 1.12883C9.48754 1.12883 11.0367 1.76375 12.213 2.80844C11.3487 3.94856 10.0356 4.70774 8.7198 5.22151C8.00269 3.90961 7.11965 2.52643 6.22103 1.31463C6.7239 1.1931 7.24936 1.12883 7.7904 1.12883ZM4.95625 1.76024C5.82449 3.05929 6.66586 4.26407 7.43477 5.62778C5.49068 6.13143 3.29457 6.4337 1.26556 6.43876C1.69325 4.3634 3.08734 2.64017 4.95625 1.76024ZM12.9519 3.57891C13.8813 4.71592 14.4411 6.1661 14.452 7.74638C12.911 7.44295 11.3783 7.3631 9.81825 7.52046C9.64258 7.08303 9.43028 6.6678 9.22656 6.21947C10.5716 5.67687 12.0097 4.74825 12.9519 3.57891ZM7.97582 6.65846C8.14253 7.01331 8.33574 7.38919 8.51686 7.77365C6.34724 8.73031 4.03972 10.0087 2.84155 12.25C1.777 11.0694 1.12883 9.50507 1.12883 7.7904C1.12883 7.72535 1.13 7.6603 1.13195 7.59564C3.45543 7.58434 5.73608 7.29376 7.97582 6.65846ZM14.4294 8.34508C14.4274 8.37079 14.4251 8.39688 14.4224 8.42259C14.4251 8.39688 14.4274 8.37118 14.4294 8.34508ZM11.4959 8.47478C12.4643 8.47167 13.4649 8.60683 14.369 8.84483C14.0734 10.7052 13.0069 12.3096 11.5072 13.3192C11.1496 11.693 10.8088 10.1369 10.2062 8.56788C10.6218 8.50595 11.0557 8.47595 11.4959 8.47478ZM14.4037 8.59554C14.399 8.63371 14.3947 8.67111 14.3893 8.70889C14.3947 8.67072 14.3994 8.63332 14.4037 8.59554ZM8.97338 8.87249C9.58765 10.4586 10.0695 12.2153 10.3928 13.925C9.5931 14.2646 8.71395 14.4524 7.7904 14.4524C6.24985 14.4524 4.83122 13.9288 3.70278 13.0505C4.90913 11.0931 6.77765 9.61218 8.97338 8.87249Z" fill="#6A6A6A"/>
</svg>
