<svg width="16" height="16" viewBox="0 0 16 16" fill="none" xmlns="http://www.w3.org/2000/svg">
<path d="M15.8585 0.0725488L15.7834 0L15.6837 0.0187237C15.6344 0.0279749 14.4579 0.254164 12.7814 1.01874C11.2366 1.7232 8.96443 3.03793 6.91196 5.30058C5.35647 7.01541 4.26056 8.50839 3.65465 9.73805C3.55172 9.94693 3.46371 10.1478 3.38891 10.3415L0.126418 14.9347C-0.0810621 15.2268 -0.0275657 15.6433 0.245883 15.865C0.358222 15.956 0.490201 16 0.621104 16C0.808859 16 0.994501 15.9094 1.11674 15.7373L3.32758 12.6247C3.46706 12.8457 3.6302 12.9566 3.70276 12.9981C4.25343 13.5192 4.98348 13.7945 5.81622 13.7945C5.81634 13.7945 5.8163 13.7945 5.81643 13.7945C7.64086 13.7945 9.83487 12.4896 11.6852 10.3041C11.7189 10.2642 11.7524 10.2234 11.7861 10.1824L11.9906 9.93277L9.44188 9.01566L13.0173 8.35582L13.0661 8.26822C13.5502 7.39861 13.9889 6.43029 14.37 5.39012L14.4492 5.17385L12.5875 4.50391L14.7792 4.09943L14.8262 4.00019C15.2924 3.01576 15.6411 2.13074 15.8346 1.4408C16.1068 0.470527 15.9904 0.199941 15.8585 0.0725488Z" fill="#6A6A6A"/>
</svg>
