<svg width="9" height="16" viewBox="0 0 9 16" fill="none" xmlns="http://www.w3.org/2000/svg">
<path d="M8.32767 7.52173C8.17938 7.52173 8.05903 7.64181 8.05903 7.79036V9.40217C8.05903 11.476 6.37201 13.1631 4.29815 13.1631C2.22429 13.1631 0.537269 11.476 0.537269 9.40217V7.79036C0.537269 7.64181 0.416921 7.52173 0.268634 7.52173C0.120348 7.52173 0 7.64181 0 7.79036V9.40217C0 11.6815 1.78481 13.5469 4.02952 13.6866V15.0435H2.68634C2.53806 15.0435 2.41771 15.1636 2.41771 15.3121C2.41771 15.4607 2.53806 15.5808 2.68634 15.5808H5.90996C6.05825 15.5808 6.17859 15.4607 6.17859 15.3121C6.17859 15.1636 6.05825 15.0435 5.90996 15.0435H4.56679V13.6866C6.8115 13.5469 8.5963 11.6813 8.5963 9.40217V7.79036C8.5963 7.64181 8.47596 7.52173 8.32767 7.52173Z" fill="#6A6A6A"/>
<path d="M4.29815 12.3572C5.92742 12.3572 7.25313 11.0315 7.25313 9.40221V2.95498C7.25313 1.32571 5.92742 0 4.29815 0C2.66889 0 1.34317 1.32571 1.34317 2.95498V9.40221C1.34317 11.0315 2.66889 12.3572 4.29815 12.3572Z" fill="#6A6A6A"/>
</svg>
