<svg width="20" height="16" viewBox="0 0 20 16" fill="none" xmlns="http://www.w3.org/2000/svg">
<path d="M17.0728 3.84959C17.0807 4.0163 17.0846 4.18358 17.0846 4.3531C17.0846 9.51003 13.1598 15.4556 5.98208 15.4556C3.77718 15.4556 1.72721 14.8106 0 13.7026C0.306485 13.738 0.6169 13.7559 0.930683 13.7559C2.76061 13.7559 4.44123 13.1345 5.77607 12.0865C4.07019 12.054 2.6287 10.9274 2.13249 9.37643C2.37049 9.42246 2.61411 9.4466 2.8667 9.4466C3.22315 9.4466 3.56724 9.39944 3.89394 9.30963C2.11059 8.95094 0.763968 7.37417 0.763968 5.48418C0.763968 5.4679 0.763968 5.45162 0.763968 5.43534C1.29106 5.72779 1.89224 5.90293 2.53215 5.92314C1.48584 5.22428 0.797086 4.02865 0.797086 2.67473C0.797086 1.9596 0.989622 1.28993 1.32474 0.712887C3.24841 3.07383 6.12522 4.62703 9.36689 4.78982C9.30121 4.5041 9.26585 4.20716 9.26585 3.90067C9.26585 1.74629 11.0127 0 13.1688 0C14.2903 0 15.3046 0.473761 16.0147 1.23043C16.9027 1.05586 17.7391 0.730849 18.4935 0.284032C18.2011 1.19563 17.5836 1.96016 16.7775 2.44178C17.5668 2.3486 18.319 2.13866 19.0178 1.82881C18.4958 2.61186 17.8345 3.29893 17.0728 3.84959Z" fill="#6A6A6A"/>
</svg>
